# xmcd
#
# Track frame offsets:
#	150
#	11010
#	24240
#	40940
#	54477
#	65557
#	79321
#	96085
#	105616
#	117108
#	132941
#	149210
#	161637
#	172413
#	201651
#
# Disc length: 3163 seconds
#
# Revision: 0
# Processed by: cddbd v1.5.1PL0 Copyright (c) Steve Scherf et al.
# Submitted via: EasyCDDAExtractor 4.6.9.1
#
DISCID=de0c590f
DTITLE=True Blue - Years Gone By
DYEAR=2003
DGENRE=Bluegrass
TTITLE0=Come Back Darlin'
TTITLE1=Darlin' Do You Know Who Loves You
TTITLE2=Sweet Fern
TTITLE3=Years Gone By
TTITLE4=Let's Get Away
TTITLE5=Please Come Back Little Pal
TTITLE6=Stepstone
TTITLE7=The Rockin' Roll
TTITLE8=Alone And Lonesome
TTITLE9=Sally Ann
TTITLE10=I Couldn't Believe It Was True
TTITLE11=Essex
TTITLE12=Long Gone
TTITLE13=Comin' Down From The Mountain
TTITLE14=Hidden Track
EXTD=
EXTT0=
EXTT1=
EXTT2=
EXTT3=
EXTT4=
EXTT5=
EXTT6=
EXTT7=
EXTT8=
EXTT9=
EXTT10=
EXTT11=
EXTT12=
EXTT13=
EXTT14=
PLAYORDER=
